<?xml version="1.0" standalone="no"?>
<!DOCTYPE svg PUBLIC "-//W3C//DTD SVG 20010904//EN"
 "http://www.w3.org/TR/2001/REC-SVG-20010904/DTD/svg10.dtd">
<svg version="1.0" xmlns="http://www.w3.org/2000/svg"
 width="500.000000pt" height="500.000000pt" viewBox="0 0 500.000000 500.000000"
 preserveAspectRatio="xMidYMid meet">

<g transform="translate(0.000000,500.000000) scale(0.100000,-0.100000)"
fill="#000000" stroke="none">
<path d="M2315 4994 c-507 -40 -963 -213 -1355 -514 -133 -103 -360 -334 -461
-470 -361 -485 -532 -1057 -490 -1635 32 -444 166 -844 400 -1196 274 -413
650 -728 1092 -918 570 -244 1228 -263 1803 -51 602 222 1089 657 1374 1226
263 526 325 1129 177 1712 -101 399 -314 781 -603 1083 -460 480 -1063 747
-1722 763 -91 2 -187 2 -215 0z m489 -169 c441 -70 818 -240 1151 -518 450
-377 735 -901 816 -1497 20 -144 17 -471 -4 -610 -80 -517 -306 -961 -674
-1323 -362 -357 -798 -569 -1328 -649 -134 -19 -481 -17 -625 5 -770 119
-1412 586 -1750 1272 -150 305 -225 605 -237 955 -13 387 61 736 232 1087 117
240 259 438 451 628 376 373 867 606 1404 664 118 13 445 5 564 -14z"/>
<path d="M1950 4400 c-36 -5 -105 -18 -155 -29 -479 -114 -758 -416 -815 -881
-6 -54 -10 -529 -10 -1307 l0 -1223 473 0 c313 0 501 -4 557 -12 119 -17 687
-17 810 0 694 95 1120 356 1221 750 23 92 25 217 3 315 -71 322 -399 554 -920
652 -76 15 -150 29 -164 32 -19 3 -2 11 65 28 458 120 738 373 773 699 27 254
-72 478 -287 644 -223 172 -561 285 -980 327 -159 16 -457 18 -571 5z m-169
-290 c153 -22 357 -107 484 -202 196 -146 367 -374 437 -583 27 -80 30 -99 26
-185 -3 -79 -8 -105 -30 -150 -30 -61 -93 -130 -152 -167 -83 -53 -259 -103
-362 -103 l-44 0 0 -53 0 -53 76 -12 c231 -36 450 -200 638 -476 130 -191 206
-424 206 -630 -1 -269 -116 -419 -342 -442 -168 -17 -341 65 -542 257 l-101
97 -6 803 c-6 890 -2 840 -73 984 -65 132 -160 214 -425 370 -106 63 -202 151
-231 212 -33 70 -26 166 17 225 69 96 227 137 424 108z"/>
</g>
</svg>
